<svg id="znaki" xmlns="http://www.w3.org/2000/svg" xmlns:xlink="http://www.w3.org/1999/xlink"  width="200" height="125" viewBox="0 0 1435 1315"><defs><style>.cls-1{fill:url(#linear-gradient);}.cls-2{fill:#0009d8;}</style><linearGradient id="linear-gradient" x1="835.9" y1="599.09" x2="1154.08" y2="280.91" gradientUnits="userSpaceOnUse"><stop offset="0.05" stop-color="#0009d8"/><stop offset="0.15" stop-color="#0111d9"/><stop offset="0.3" stop-color="#0426da"/><stop offset="0.48" stop-color="#0848dd"/><stop offset="0.69" stop-color="#0f78e1"/><stop offset="0.92" stop-color="#17b4e5"/><stop offset="0.95" stop-color="#18bce6"/></linearGradient></defs><path class="cls-1" d="M848.68,610.92V583.44h-27A225.62,225.62,0,0,0,848.68,610.92ZM848,269.67a226.75,226.75,0,0,0-28.82,30H848ZM1159.29,429.6c-8.28,8-17.33,16.08-26.12,23.91-10,8.94-20.41,18.18-29.52,27.25.09.54.18,1.07.31,1.56,2.37,9.45,10.91,16.61,19.85,16.68,3.53,0,11.58,0,14.9,0a18.74,18.74,0,0,0,8.13-1.69c7.94-3.8,12.35-11,12.41-20.3.09-12.63.07-25.48,0-37.9Q1159.28,434.36,1159.29,429.6ZM969.7,251.81c8.3-8,17.47-16.17,26.39-24.11,4.53-4,9.12-8.12,13.63-12.21-4.87-.31-9.77-.49-14.72-.49a225,225,0,0,0-25.31,1.43c0,8.62,0,17.25,0,25.68Q969.71,247,969.7,251.81Zm174.85,20.1v27.68h26.26A226.83,226.83,0,0,0,1144.55,271.91ZM970.1,281.39a13.92,13.92,0,0,0,.3,1.56c2.37,9.45,10.91,16.62,19.85,16.68,3.53,0,11.58,0,14.9,0a18.53,18.53,0,0,0,8.13-1.69c8-3.8,12.35-11,12.41-20.3.08-12.57.07-25.35,0-37.71,0-3.23,0-6.46,0-9.69-8.28,8-17.33,16.07-26.12,23.91C989.57,263.09,979.2,272.33,970.1,281.39ZM1025,601.67c-1.85-12.12-11.66-20.4-19.64-20.53-2.77,0-8.22,0-12.2,0h-3.39a18.8,18.8,0,0,0-8.91,2.09c-7.89,4.19-11.47,14.06-11.52,22-.07,12.59,0,25.39,0,37.78q0,4.88,0,9.76c8.3-8,17.47-16.18,26.39-24.11C1005.67,619.74,1016,610.54,1025,601.67Zm161.57-279.75h-105.7V299.63H1122V254.27a224,224,0,0,0-72.45-32.59v56.47a43.49,43.49,0,0,1-34.17,42.72,44,44,0,0,1-9.36,1h-7.7c-3.45,0-7,0-9.23-.08a42,42,0,0,1-22.87-7.57,43.55,43.55,0,0,1-19-36.23V220.09a223.48,223.48,0,0,0-76.76,32.47v47H909v22.33H803.46a225,225,0,0,0,11.77,253.39V561.05h56V627.9a223.66,223.66,0,0,0,75.64,31.92V602.64a44.14,44.14,0,0,1,2-13.39,43.52,43.52,0,0,1,32.92-29.67,44.1,44.1,0,0,1,8.78-.85h15a43,43,0,0,1,27.72,9.79h0a42.68,42.68,0,0,1,14.81,24,44,44,0,0,1,1.07,9.93v56A224.21,224.21,0,0,0,1121.6,626V583.44h-33.46V561.05h56v47.41a225,225,0,0,0,42.41-286.54Zm-277,155.6a43.45,43.45,0,0,1-34.16,42.71,43.32,43.32,0,0,1-9.36,1h-2l-5.76,0c-3.44,0-7,0-9.2-.09a42,42,0,0,1-22.88-7.57,43.49,43.49,0,0,1-19-36.22v-76.3a43.83,43.83,0,0,1,2-13.39A43.48,43.48,0,0,1,842.16,358a44.07,44.07,0,0,1,8.77-.86h15A43,43,0,0,1,893.68,367h0a42.62,42.62,0,0,1,14.81,24,43.43,43.43,0,0,1,1.08,9.93ZM1049,521.29H946.81V499H988V381.87H954.53V359.48h56V499H1049Zm134.1-43.77a43.44,43.44,0,0,1-43.53,43.71h-2l-5.76,0c-3.44,0-7,0-9.2-.09a42,42,0,0,1-22.88-7.57,43.49,43.49,0,0,1-19-36.22v-76.3a43.83,43.83,0,0,1,2-13.39A43.48,43.48,0,0,1,1115.72,358a44.09,44.09,0,0,1,8.78-.86h15a43,43,0,0,1,27.72,9.79h0a42.64,42.64,0,0,1,14.82,24,44,44,0,0,1,1.07,9.93ZM1159,400.1c-1.85-12.12-11.66-20.4-19.64-20.53-2.78,0-8.22,0-12.2,0h-3.39a18.8,18.8,0,0,0-8.91,2.09c-7.89,4.19-11.47,14.06-11.52,22-.07,12.59,0,25.4,0,37.78q0,4.88,0,9.76c8.3-8,17.47-16.18,26.38-24.11C1139.65,418.17,1150,409,1159,400.1Zm-273.56,0c-1.86-12.12-11.66-20.4-19.65-20.53-2.77,0-8.22,0-12.19,0h-3.39a18.8,18.8,0,0,0-8.91,2.09c-7.9,4.19-11.47,14.06-11.52,22-.07,12.59-.06,25.4,0,37.78,0,3.25,0,6.5,0,9.76,8.3-8,17.47-16.18,26.38-24.11C866.09,418.17,876.42,409,885.39,400.1Zm139.92,231.07c-8.28,8-17.33,16.08-26.12,23.91-3.64,3.24-7.31,6.52-11,9.81,2.25.07,4.5.11,6.77.11a226.43,226.43,0,0,0,30.33-2c0-7.49,0-15,0-22.28Q1025.3,635.92,1025.31,631.17ZM885.72,429.6c-8.27,8-17.32,16.08-26.12,23.91-10,8.94-20.41,18.18-29.51,27.25.09.54.18,1.07.3,1.56,2.38,9.45,10.91,16.61,19.86,16.68,3.53,0,11.57,0,14.9,0a18.74,18.74,0,0,0,8.13-1.69c7.94-3.8,12.35-11,12.41-20.3.08-12.63.06-25.48,0-37.9C885.73,435.94,885.73,432.77,885.72,429.6Z"/><path class="cls-2" d="M450.7,882c-19.32-1.74-35.38,5.64-46.6,18L386,882l-21,21,26.49,26.42c-.83,16.76-.13,90.65-.34,99.4H365.46V1058h99v-29.25H421.13s-.06-79.8.07-95.84c1.38-13.69,10.07-21.14,25.49-20.31,4.44,0,6.27,2.81,6.27,6.12V940h29.77C483.91,914.19,484.24,883.86,450.7,882ZM319,897.25c-13.54-15.64-53.35-22.17-75.71-3.34V885H215v215h29.4v-46.39c32.41,19.13,88.66,1.68,88.67-40.7V929.75A45.72,45.72,0,0,0,319,897.25Zm-57.24,133.09c-9.49-1.84-16.5-10.39-17.38-20.28V927.23c19.27-21.47,59.1-20.38,59.1,7.32v75.58C303.14,1032.14,277.51,1032.93,261.77,1030.34Zm57.44-351.22c-7-6.9-19.85-15.12-41-15.12-10.47,0-24.16,4.76-34.92,12.16V667H215V840h29.38V709.56c9.58-10.67,20.82-15.11,32.69-15.11,23.21,0,26.49,15.53,26.49,22.52,0,21.33,0,123,0,123h29.65S333,744.84,333,711.34A45.54,45.54,0,0,0,319.21,679.12ZM481.2,810H439.43V667h-66v30h36.28V810H365v30H481.2Zm84.44,34H582.5a50.6,50.6,0,0,0,49.38-39.62L603,798a21.51,21.51,0,0,1-20.8,16H566a21.53,21.53,0,0,1-21.54-21.53V715.53A21.53,21.53,0,0,1,566,694h16.2a21.56,21.56,0,0,1,20.57,15.13l28.91-6.49A50.59,50.59,0,0,0,582.5,664H565.64a50.57,50.57,0,0,0-50.58,50.57v78.86A50.57,50.57,0,0,0,565.64,844Zm451.75,188h-16.2a21.54,21.54,0,0,1-21.54-21.53V933.53A21.54,21.54,0,0,1,1001.19,912h16.2A21.54,21.54,0,0,1,1038,927.13l28.91-6.49A50.58,50.58,0,0,0,1017.72,882h-16.86a50.58,50.58,0,0,0-50.58,50.57v78.86a50.58,50.58,0,0,0,50.58,50.57h16.86a50.6,50.6,0,0,0,49.38-39.62l-28.9-6.43A21.53,21.53,0,0,1,1017.39,1032Zm76.92-147.09v29.57H1142l.23,143.52H1172l.11-143.52H1220V884.91ZM867.55,882H850.69a50.58,50.58,0,0,0-50.58,50.57v78.86A50.58,50.58,0,0,0,850.69,1062h16.86a50.58,50.58,0,0,0,49.38-39.62L888,1016a21.53,21.53,0,0,1-20.81,16H851a21.54,21.54,0,0,1-21.54-21.53V980h88.65V932.57A50.57,50.57,0,0,0,867.55,882Zm21.21,68H829.48V933.53A21.54,21.54,0,0,1,851,912h16.2a21.53,21.53,0,0,1,21.54,21.53ZM732.53,664H715.67a50.57,50.57,0,0,0-50.58,50.57v78.86A50.57,50.57,0,0,0,715.67,844h16.86a50.6,50.6,0,0,0,49.38-39.62L753,798a21.52,21.52,0,0,1-20.8,16H716a21.53,21.53,0,0,1-21.54-21.53V762h88.65V714.57A50.58,50.58,0,0,0,732.53,664Zm21.2,68H694.46V715.53A21.53,21.53,0,0,1,716,694h16.2a21.53,21.53,0,0,1,21.53,21.53ZM740.67,884.91H673.59v29.57l36.86.37v155.42H665.09V1100h118v-29.77H740.67Zm-158-2.91H565.51a50.44,50.44,0,0,0-50.45,50.44v117.12A50.44,50.44,0,0,0,565.51,1100h17.12a50.45,50.45,0,0,0,50.45-50.44V932.44A50.45,50.45,0,0,0,582.63,882Zm-38.51,54c-.18-10.82,7.08-24.24,19.67-23.68h18.14c8.7,0,19.65,8.23,19.23,17.61l-57.09,77.13C544.07,988.92,544.07,944,544.12,936Zm58,112.88c.14,10.91-9.19,21.39-20.89,21.4-14.09.55-31.54,1.15-36.91-15.38l58.08-76.44C602.38,996.87,602.2,1043.41,602.17,1048.87Z"/></svg>